# xmcd
#
# Track frame offsets:
#	150
#	42709
#	95842
#	147249
#
# Disc length: 2297 seconds
#
# Revision: 0
# Processed by: cddbd v1.5.2PL0 Copyright (c) Steve Scherf et al.
# Submitted via: audiograbber 1.83.01
#
DISCID=3a08f704
DTITLE=Grateful Dead - 95-04-07 Tampa Stadium, Tampa FL
DYEAR=1900
DGENRE=
TTITLE0=Space > Easy Answers
TTITLE1=Days Between
TTITLE2=Not Fade Away
TTITLE3=US Blues
EXTD=
EXTT0=
EXTT1=
EXTT2=
EXTT3=
PLAYORDER=
